<?xml version="1.0" encoding="UTF-8" standalone="no"?>
<svg
   xmlns:dc="http://purl.org/dc/elements/1.1/"
   xmlns:cc="http://creativecommons.org/ns#"
   xmlns:rdf="http://www.w3.org/1999/02/22-rdf-syntax-ns#"
   xmlns:svg="http://www.w3.org/2000/svg"
   xmlns="http://www.w3.org/2000/svg"
   id="svg14"
   xml:space="preserve"
   enable-background="new 0 0 1000 1000"
   viewBox="0 0 1000 1000"
   y="0px"
   x="0px"
   version="1.1"><defs
   id="defs18" />
<metadata
   id="metadata2"> Svg Vector Icons : http://www.sfont.cn <rdf:RDF><cc:Work
     rdf:about=""><dc:format>image/svg+xml</dc:format><dc:type
       rdf:resource="http://purl.org/dc/dcmitype/StillImage" /></cc:Work></rdf:RDF></metadata>
<g
   id="g12"><path
     id="path4"
     d="M252.7,363l241.2,116.5L673.7,72.8c0,0,4.1-34.8-26.6-57.2c-30.7-22.5-73.6,30.7-73.6,30.7L252.7,363z" /><path
     id="path6"
     d="M747.3,637L506.1,520.4L326.3,927.2c0,0-4.1,34.7,26.6,57.2c30.7,22.5,73.6-30.7,73.6-30.7L747.3,637z" /><path
     id="path8"
     d="M637,252.7L520.4,493.9l406.8,179.9c0,0,34.7,4.1,57.2-26.6c22.5-30.7-30.7-73.6-30.7-73.6L637,252.7z" /><path
     id="path10"
     d="M363,747.3l116.5-241.2L72.8,326.3c0,0-34.8-4.1-57.2,26.6c-22.5,30.7,30.7,73.6,30.7,73.6L363,747.3z" /></g>
</svg>